<?xml version="1.0" encoding="UTF-8" standalone="no"?>
<!-- Created with Inkscape (http://www.inkscape.org/) -->

<svg
   version="1.1"
   id="svg2"
   width="1341.9867"
   height="295.84"
   viewBox="0 0 1341.9867 295.84"
   sodipodi:docname="Valtech_Logo_White.eps"
   xmlns:inkscape="http://www.inkscape.org/namespaces/inkscape"
   xmlns:sodipodi="http://sodipodi.sourceforge.net/DTD/sodipodi-0.dtd"
   xmlns="http://www.w3.org/2000/svg"
   xmlns:svg="http://www.w3.org/2000/svg">
  <defs
     id="defs6" />
  <sodipodi:namedview
     id="namedview4"
     pagecolor="#ffffff"
     bordercolor="#000000"
     borderopacity="0.25"
     inkscape:showpageshadow="2"
     inkscape:pageopacity="0.0"
     inkscape:pagecheckerboard="0"
     inkscape:deskcolor="#d1d1d1" />
  <g
     id="g8"
     inkscape:groupmode="layer"
     inkscape:label="ink_ext_XXXXXX"
     transform="matrix(1.3333333,0,0,-1.3333333,0,295.84)">
    <g
       id="g10"
       transform="scale(0.1)">
      <path
         d="m 8955.52,1035.46 c -40.85,0 -73.96,33.11 -73.96,73.96 0,40.85 33.11,73.96 73.96,73.96 40.84,0 73.96,-33.11 73.96,-73.96 0,-40.85 -33.12,-73.96 -73.96,-73.96 m 1109.38,147.92 h -930.8 l 658.19,658.22 -104.6,104.6 -658.21,-658.22 v 930.86 h -147.93 l 0.01,-930.86 -658.2,658.22 -104.6,-104.61 658.19,-658.21 H 7846.1 v -147.92 h 930.85 l -658.19,-658.21 104.6,-104.609 658.2,658.218 V 0 h 147.92 v 930.859 l 658.21,-658.218 104.6,104.609 -658.19,658.21 h 930.8 z M 6162.58,1981.3 h 150.89 v -564.76 c 0,-53.88 0,-94.84 -4.33,-194 h 4.33 c 56.05,155.21 191.84,286.7 403.07,286.7 250.06,0 405.26,-178.92 405.26,-463.45 V 297.82 h -150.89 v 704.86 c 0,262.97 -118.56,372.92 -291.02,372.92 -189.69,0 -366.42,-131.49 -366.42,-426.799 V 297.82 H 6162.58 Z M 4899.43,890.602 c 0,372.898 215.53,618.638 579.83,618.638 319.02,0 497.93,-198.31 536.73,-444.05 L 5860.8,1030.7 c -12.96,187.53 -146.6,349.19 -381.54,349.19 -260.83,0 -422.5,-202.61 -422.5,-489.288 0,-301.793 185.4,-489.313 422.5,-489.313 232.8,0 359.98,178.902 381.54,325.481 l 153.04,-34.489 c -43.13,-226.34 -228.48,-420.32 -534.58,-420.32 -347.05,0 -579.83,243.57 -579.83,618.641 z m -282.31,84.046 c -2.16,234.972 -148.74,405.242 -390.15,405.242 -247.91,0 -392.32,-178.9 -409.57,-405.242 z m -963.54,-84.046 c 0,381.528 232.8,618.638 569.06,618.638 325.5,0 553.98,-222.03 553.98,-564.76 v -99.16 h -961.39 c 8.63,-260.82 166,-444.031 411.74,-444.031 183.21,0 325.48,101.301 375.05,260.82 l 155.21,-34.5 C 4694.72,418.52 4492.09,271.961 4226.97,271.961 c -344.9,0 -573.39,245.719 -573.39,618.641 z M 3069.47,575.871 v 773.849 h -252.2 v 133.64 h 252.2 v 323.34 h 150.89 v -323.34 h 381.53 V 1349.72 H 3220.36 V 582.352 c 0,-103.473 49.57,-150.891 148.73,-150.891 h 243.57 V 297.82 h -265.14 c -183.21,0 -278.05,96.989 -278.05,278.051 z M 2513.29,1981.3 h 150.89 V 297.82 H 2513.29 Z M 1638.15,401.289 c 206.9,0 407.38,135.781 407.38,441.891 v 159.5 h -4.31 C 2004.57,918.621 1924.83,873.352 1780.4,873.352 h -122.85 c -209.09,0 -284.54,-109.93 -284.54,-234.954 0,-127.179 77.59,-237.109 265.14,-237.109 z m -424.66,237.109 c 0,241.411 185.38,364.282 439.72,364.282 h 185.4 c 142.27,0 206.92,53.88 206.92,155.2 0,142.27 -127.18,222.01 -295.31,222.01 -189.69,0 -325.49,-99.14 -340.58,-280.2 l -150.87,34.48 c 34.46,234.95 209.09,375.07 491.45,375.07 301.77,0 446.19,-159.52 446.19,-383.69 V 513.359 c 0,-58.187 23.73,-81.898 77.61,-81.898 h 47.42 V 297.82 h -99.15 c -105.62,-0.011 -170.3,62.5 -170.3,165.969 V 580.18 h -4.29 c -68.99,-206.918 -237.11,-308.219 -437.58,-308.219 -226.34,0 -396.63,131.469 -396.63,366.437 z M 0,1806.7 H 168.125 L 495.773,881.969 C 543.195,746.16 592.785,608.211 640.207,474.57 h 2.145 c 47.425,133.641 96.992,271.59 144.418,407.399 l 327.64,924.731 h 168.13 L 722.094,297.809 H 560.426 L 0,1806.7"
         style="fill:#ffffff;fill-opacity:1;fill-rule:nonzero;stroke:none"
         id="path12" />
    </g>
  </g>
</svg>
